<?xml version="1.0" encoding="utf-8"?>
<!-- Generator: Adobe Illustrator 27.5.0, SVG Export Plug-In . SVG Version: 6.00 Build 0)  -->
<svg version="1.1" xmlns="http://www.w3.org/2000/svg" xmlns:xlink="http://www.w3.org/1999/xlink" x="0px" y="0px"
	 viewBox="0 0 499.999 500" style="enable-background:new 0 0 499.999 500;" xml:space="preserve">
<g id="BACKGROUND">
	<rect style="fill:#FFFFFF;" width="499.999" height="500"/>
</g>
<g id="OBJECTS">
	<g>
		<g>
			<path style="fill-rule:evenodd;clip-rule:evenodd;fill:#2E2E2E;" d="M138.364,241.182c2.23-1.128,4.024-2.554,5.338-4.518
				c0.8-1.197,1.596-2.399,2.456-3.553c1.051-1.407,1.388-1.474,3.007-0.74c0.502,0.228,0.963,0.547,1.51,0.863
				c-0.326,1.638-0.971,2.993-2.133,4.116c-2.381,2.301-4.135,4.903-5.617,8.29c0.492,0.301,1.002,0.611,1.673,1.021
				c0.29-1.4,1.063-2.335,2.22-2.854c0.37-0.167,0.91,0.046,1.376,0.085c-0.233,2.107-1.01,3.078-2.917,3.677
				c1.205,0.697,0.988,1.648,0.571,2.619c-0.73,1.701-1.472,3.398-2.353,5.43c-0.601-0.672-1.223-1.053-1.319-1.538
				c-0.262-1.318-1.114-2.026-2.308-2.705c-0.363,0.546-0.732,1.1-1.17,1.759c0.682,0.266,1.272,0.496,2.138,0.833
				c-0.675,1.077-1.192,2.062-1.862,2.926c-0.588,0.758-1.584,0.739-2.218-0.221c-0.655-0.993-1.466-1.201-2.624-1.236
				c-0.566,1.239-1.053,2.832-3.055,1.655c-0.36,0.988-0.885,1.59-1.97,1.447c-0.309-0.04-0.682,0.224-0.991,0.404
				c-1.335,0.777-2.032,0.637-2.989-0.611c-0.216-0.28-0.484-0.522-0.867-0.928c-0.281,0.725-0.493,1.27-0.699,1.802
				c-2.949,0.854-4.663-0.072-5.239-3.006c-0.195-0.998-0.216-2.215,0.186-3.106c0.669-1.486,0.564-2.82,0.198-4.315
				c-0.533-2.17-0.258-4.382,0.248-6.517c1.699-7.164,4.265-14.006,8.026-20.355c0.824-1.39,1.927-2.612,2.871-3.935
				c0.354-0.498,0.767-1.021,0.91-1.595c3.064-12.158,9.135-22.694,17.237-32.146c0.326-0.381,0.929-0.776,0.918-1.151
				c-0.069-2.504,2.336-3.196,3.391-4.85c1.5-2.35,3.696-4.045,5.507-6.1c0.316-0.359,0.57-0.774,0.67-1.397
				c-0.461,0.336-0.938,0.651-1.38,1.012c-5.451,4.455-10.214,9.601-14.882,14.843c-0.72,0.809-1.311,1.827-2.547,2.149
				c-0.665-0.815-0.24-1.508,0.201-2.064c1.321-1.662,2.542-3.463,4.114-4.857c4.418-3.915,8.444-8.185,12.337-12.611
				c6.213-7.064,13.528-12.804,21.57-17.666c6.863-4.149,13.765-8.193,21.294-11.07c2.391-0.914,4.664-2.135,6.984-3.23
				c9.232-4.36,18.893-6.952,29.152-7.066c2.879-0.032,5.763-0.125,8.638-0.005c1.273,0.053,2.529,0.564,3.792,0.869
				c0.36,0.087,0.717,0.258,1.078,0.267c8.71,0.197,17.081,2.379,25.49,4.348c4.811,1.127,9.64,2.182,14.463,3.26
				c2.561,0.572,5.152,1.035,7.688,1.707c3.398,0.901,6.596,2.307,9.681,4.023c5.813,3.233,11.354,6.868,16.675,10.847
				c0.651,0.487,1.319,0.954,1.987,1.418c0.083,0.059,0.217,0.045,0.784,0.146c-3.356-2.905-6.416-5.555-9.476-8.203
				c0.021-0.106,0.042-0.214,0.063-0.32c0.428,0.048,0.881,0.02,1.279,0.154c4.918,1.669,9.238,4.3,13.234,7.646
				c3.398,2.846,7.176,5.238,10.754,7.873c4.45,3.277,8.625,6.861,12.146,11.156c0.178,0.217,0.41,0.388,0.74,0.468
				c-4.403-7.542-11.085-13.141-16.624-19.779c0.659,0.515,1.365,0.98,1.968,1.554c1.406,1.337,2.757,2.734,4.143,4.093
				c4.696,4.603,9.436,9.159,14.081,13.813c2.474,2.479,4.864,5.055,6.464,8.239c0.159,0.318,0.469,0.566,0.732,0.824
				c0.131,0.128,0.321,0.192,0.473,0.304c1.047,0.777,2.175,1.891,1.718,3.06c-0.382,0.979-1.772,1.609-2.806,2.253
				c-0.235,0.146-0.953-0.181-1.242-0.486c-0.55-0.581-0.949-1.305-1.405-1.959c-2.625,1.622-5.202,3.215-7.794,4.816
				c-0.443-0.508-0.713-0.816-1.027-1.177c-2.807,1.513-5.598,2.932-8.293,4.516c-1.024,0.603-1.825,1.586-2.845,2.5
				c-1.613-0.809-3.274-2.006-4.669-3.563c-2.089-2.33-4.176-4.663-6.258-7c-0.416-0.467-0.854-0.925-1.204-1.44
				c-1.909-2.816-4.079-5.374-6.961-7.258c-0.309-0.202-0.592-0.479-0.814-0.774c-2.688-3.566-6.646-5.434-10.324-7.65
				c-1.646-0.992-3.469-1.688-5.404-2.254c1.417,1.018,2.822,2.054,4.256,3.049c1.027,0.714,2.109,1.35,3.136,2.064
				c0.611,0.426,1.22,0.867,1.093,1.81c-0.035,0.258,0.306,0.604,0.534,0.854c1.139,1.249,2.333,2.449,3.442,3.724
				c1.369,1.574,1.332,1.919-0.13,3.699c-1.209-0.086-1.96-0.62-2.375-1.893c-0.361-1.111-1.133-2.084-1.654-3.151
				c-0.424-0.867-0.744-1.785-1.233-2.98c-0.267-0.169-0.872-0.5-1.421-0.908c-2.833-2.108-6.027-3.182-9.509-3.709
				c-7.609-1.152-15.197-2.452-22.791-3.71c-1.405-0.232-2.81-0.512-4.057-1.221c-0.014-1.406,0.634-2.107,1.867-2.27
				c1.051-0.138,2.108-0.224,3.275-0.344c0.37-0.63,0.774-1.318,1.244-2.118c-0.482-0.29-0.867-0.603-1.308-0.774
				c-1.397-0.544-2.781-1.188-4.232-1.519c-4.301-0.979-8.299-2.773-12.36-4.398c-0.558-0.223-1.078-0.535-1.561-0.779
				c0.071-1.099,0.661-1.425,1.415-1.277c0.845,0.166,1.785,0.345,2.444,0.838c1.469,1.098,3.054,1.48,4.846,1.7
				c3.769,0.463,7.214,1.993,10.53,3.797c2.205,1.2,2.205,1.2,4.753,0.741c0.14-0.638,0.284-1.292,0.439-1.994
				c-1.69-1.043-3.643-1.249-5.533-1.595c-2.46-0.451-4.948-0.753-7.416-1.17c-0.792-0.134-1.605-0.331-2.322-0.676
				c-1.201-0.577-1.361-1.238-0.678-2.411c1.674-2.874,3.772-5.175,7.417-5.318c0.224-0.009,0.443-0.138,0.654-0.532
				c-1.508-0.025-3.025-0.177-4.521-0.055c-8.421,0.687-16.839,1.476-25.117,3.218c-3.973,0.837-7.864,2.061-11.79,3.12
				c-0.477,0.128-0.935,0.324-1.363,0.679c1.447-0.204,2.889-0.453,4.342-0.601c2.287-0.232,2.796,0.089,3.98,2.344
				c-0.967,1.408-2.335,2.384-3.902,3.036c-3.177,1.322-6.367,2.619-9.597,3.806c-2.025,0.743-3.845,1.762-5.643,3.319
				c0.541,0.075,0.926,0.175,1.311,0.175c4.906,0.008,9.716,0.871,14.545,1.594c1.897,0.283,3.127,1.405,4.217,2.847
				c0.537,0.711,0.404,1.29-0.148,1.82c-1.827,1.756-3.787,3.24-6.453,3.527c-3.749,0.403-7.497,0.597-11.244,0.115
				c-3.222-0.414-6.494-0.45-9.65-1.395c-0.727-0.218-1.62-0.075-2.395,0.093c-5.614,1.215-10.804,3.534-15.85,6.208
				c-1.966,1.042-3.908,2.13-6.116,3.012c0.263-0.333,0.461-0.764,0.797-0.984c4.396-2.874,8.806-5.727,13.226-8.565
				c1.039-0.667,2.127-1.261,3.536-2.09c-0.659-0.345-0.98-0.638-1.308-0.648c-0.343-0.012-0.695,0.248-1.042,0.391
				c-10.475,4.328-20.118,10.039-29.198,16.839c-7.554,5.656-13.771,12.558-19.784,19.7c-2.334,2.771-4.584,5.637-6.604,8.64
				c-1.42,2.108-2.391,4.52-3.555,6.799c-0.391,0.765-0.76,1.539-1.144,2.318c-0.965-0.222-1.2-0.686-0.834-1.389
				c0.316-0.607,0.777-1.143,1.07-1.76c1.126-2.37,2.308-4.721,3.286-7.152c1.203-2.992,2.833-5.682,4.807-8.229
				c4.954-6.396,10.45-12.298,15.894-18.271c5.226-5.732,10.959-10.802,17.085-15.489c0.833-0.638,1.659-1.285,2.342-2.183
				c-0.517,0.28-1.054,0.531-1.549,0.847c-4.88,3.113-9.273,6.832-13.373,10.896c-1.662,1.648-3.391,3.095-5.637,3.939
				c-1.003,0.376-1.944,1.171-2.67,1.991c-6.397,7.232-12.579,14.605-16.744,23.457c-2.771,5.887-5.881,11.613-8.737,17.46
				c-1.645,3.369-3.096,6.834-4.617,10.264C138.649,240.122,138.529,240.663,138.364,241.182z M287.729,150.873
				c-5.329-1.364-8.624-1.027-13.267,1.61c4.339,1.64,8.754,1.232,13.604,0.962C286.529,152.489,287.3,151.73,287.729,150.873z
				 M359.699,184.43c0.109-0.057,0.218-0.112,0.327-0.168c-0.593-1.853-2.077-4.267-3.297-5.083
				C357.823,181.114,358.761,182.772,359.699,184.43z M291.67,151.581c1.198,0.978,1.198,0.978,2.631,0.752
				C293.284,152.042,292.477,151.811,291.67,151.581z M281.971,146.409c-0.012,0.019-0.023,0.037-0.035,0.055
				c0.245,0,0.49,0,0.735,0c0-0.018-0.001-0.036-0.002-0.055C282.437,146.409,282.204,146.409,281.971,146.409z"/>
			<path style="fill-rule:evenodd;clip-rule:evenodd;fill:#2E2E2E;" d="M332.228,356.082c0.61,0.429,1.033,0.726,1.604,1.126
				c-0.724,0.347-1.315,0.63-1.882,0.902c0.313,2.084,0.5,2.27,2.384,2.438c-0.247,0.513-0.497,1.029-0.871,1.802
				c0.728-0.074,1.193-0.105,1.655-0.175c0.416-0.061,0.825-0.165,1.367-0.006c-0.513,0.348-1.006,0.73-1.543,1.036
				c-1.142,0.65-2.311,1.253-3.46,1.891c-0.692,0.385-1.431,0.63-1.546,1.689c-0.064,0.592-0.729,1.116-0.96,1.44
				c0.096,1.011,0.448,1.936,0.169,2.591c-0.267,0.623-1.171,1.001-1.841,1.412c-0.304,0.187-0.718,0.194-1.083,0.28
				c-1.973,0.463-3.741,1.282-5.376,2.539c-1.164,0.896-2.609,1.424-3.928,2.118c-0.869,0.457-1.825,0.805-2.588,1.399
				c-2.854,2.227-5.929,3.991-9.526,4.635c-1.281,0.229-2.617,0.271-3.921,0.22c-1.461-0.057-1.901-0.649-2.372-2.664
				c-0.333-1.428-0.194-1.744,1.188-2.566c0.429-0.256,0.89-0.458,1.328-0.7c0.354-0.196,0.696-0.415,1.004-0.719
				c-3.296,0.435-6.565,0.808-9.674,2.114c-5.424,2.278-10.872,4.599-16.744,5.433c-5.201,0.738-10.447,1.16-15.676,1.709
				c-1.026,0.107-1.941,0.194-2.926,0.835c-1.084,0.705-2.595,0.982-3.934,1.024c-3.187,0.101-6.393,0.108-9.571-0.126
				c-9.807-0.721-19.514-2.217-29.179-3.998c-2.91-0.536-5.752-1.24-8.234-2.964c-0.975-0.676-1.689-1.452-1.607-2.762
				c0.081-1.307,0.277-1.645,1.538-1.518c1.421,0.143,2.854,0.386,4.223,0.783c4.443,1.29,8.857,2.68,13.29,4.008
				c0.768,0.23,1.569,0.349,2.459,0.28c-0.446-0.262-0.878-0.554-1.341-0.781c-5.187-2.553-10.635-4.431-16.187-5.959
				c-2.495-0.686-5.145-0.815-7.997-1.237c0.862,1.026,1.513,1.803,2.322,2.768c-1.773,0.554-3.165,0.189-4.414-0.448
				c-2.56-1.306-5.057-2.738-7.553-4.164c-1.289-0.736-2.524-1.571-4.09-2.555c0.119-1.241,0.263-2.747,0.439-4.59
				c-0.661-0.379-1.595-0.989-2.592-1.471c-2.311-1.116-4.645-2.186-6.982-3.242c-2.813-1.272-5.402-2.89-7.775-4.867
				c-4.858-4.049-9.789-8.013-14.571-12.149c-1.976-1.709-3.666-3.753-5.447-5.68c-0.849-0.918-1.524-2.006-2.422-2.867
				c-2.286-2.193-3.947-4.842-5.689-7.441c-0.968-1.443-1.448-3.041-1.731-4.721c-0.478-2.832-1.016-5.656-1.385-8.502
				c-0.184-1.411-0.109-2.866-0.038-4.296c0.056-1.124,0.746-1.833,1.863-2.057c0.671-0.136,1.351-0.233,2.032-0.318
				c1.096-0.138,1.826,0.296,2.523,1.21c1.169,1.533,2.487,2.971,3.875,4.311c1.168,1.127,2.596,1.824,4.196,2.357
				c1.616,0.539,3.086,1.604,4.515,2.59c1.065,0.735,1.964,1.713,2.942,2.587c1.113-1.473,1.139-1.598-0.044-2.635
				c-1.786-1.566-3.625-3.069-5.425-4.618c-0.376-0.324-0.709-0.71-1.006-1.109c-0.453-0.608-0.263-1.198,0.204-1.698
				c0.509-0.547,1.058-0.302,1.496,0.087c1.311,1.162,2.706,2.259,3.846,3.574c1.62,1.871,3.566,3.174,5.661,4.468
				c3.412,2.108,6.96,3.91,10.523,5.715c0.817,0.413,1.498,1.098,2.234,1.667c0.89,0.688,1.771,1.386,2.659,2.076
				c0.346,0.269,0.949,0.484,1.004,0.8c0.303,1.734,1.854,1.814,3.007,2.396c0.871,0.44,1.801,0.765,2.862,0.847
				c-0.455-0.396-0.91-0.791-1.365-1.186c-3.219-2.787-6.446-5.563-9.648-8.368c-0.795-0.696-1.538-1.471-1.54-2.728
				c1.079-0.479,1.974,0.009,2.796,0.539c1.577,1.018,3.105,2.112,4.651,3.179c4.739,3.27,9.328,6.791,14.252,9.756
				c7.671,4.619,15.67,8.645,24.185,11.545c0.857,0.291,1.664,0.731,2.637,1.168c-0.722,0.828-1.356,0.385-1.865,0.261
				c-6.266-1.522-12.476-3.229-18.409-5.812c-0.855-0.371-1.724-0.708-2.71-0.878c0.415,0.29,0.824,0.588,1.246,0.867
				c7.523,4.987,16.006,7.349,24.762,8.807c11.442,1.904,23.002,2.59,34.583,3.11c6.223,0.279,12.232-0.428,18.15-2.249
				c0.418-0.129,0.85-0.232,1.247-0.408c7.305-3.253,15.064-5.491,21.882-9.837c0.839-0.535,1.756-0.979,2.69-1.318
				c0.466-0.168,1.341-0.202,1.522,0.058c0.344,0.495,0.533,1.294,0.395,1.873c-0.146,0.613-0.646,1.258-1.171,1.642
				c-1.202,0.878-2.443,1.768-3.796,2.364c-4.522,1.991-9.121,3.811-13.651,5.786c-2.468,1.077-5.117,1.12-7.684,1.636
				c-5.457,1.098-10.912,2.209-16.367,3.316c-0.227,0.046-0.448,0.113-0.659,0.418c0.322,0.029,0.647,0.1,0.968,0.083
				c6.826-0.343,13.577-1.331,20.313-2.431c0.789-0.129,1.568-0.454,2.295-0.808c6.246-3.034,12.595-5.887,18.687-9.205
				c7.327-3.991,13.376-9.645,18.932-15.825c0.449-0.499,0.927-0.974,1.432-1.502c0.705,1.932,0.787,3.925,2.053,5.478
				c0.037,0.046,0.064,0.112,0.068,0.171c0.254,3.981,2.956,7.035,4.06,10.703c0.516,1.715,1.45,3.299,1.478,5.161
				c0.004,0.271,0.29,0.527,0.388,0.811c0.222,0.642,0.547,1.29,0.577,1.946c0.066,1.415,0.049,2.845-0.102,4.251
				c-0.046,0.431-0.581,0.866-0.981,1.189C333.393,355.533,332.867,355.735,332.228,356.082z M324.358,368.84
				c-3.619,1.486-7.239,2.972-10.858,4.458C317.658,373.013,321.069,370.932,324.358,368.84z"/>
			<path style="fill-rule:evenodd;clip-rule:evenodd;fill:#2E2E2E;" d="M364.659,244.296c-0.18,2.319-1.89,3.683-3.091,5.359
				c-0.709,0.989-0.861,2.068-0.65,3.215c0.803,4.341-0.067,8.364-1.726,12.433c-1.237,3.034-1.774,6.368-2.483,9.6
				c-0.603,2.746-0.998,5.537-1.5,8.305c-0.101,0.553-0.256,1.097-0.413,1.637c-0.724,2.485-1.804,3.038-4.305,2.293
				c-0.776-0.232-0.979-0.783-0.887-1.434c0.2-1.417,0.339-2.87,0.778-4.219c0.773-2.377,1.761-4.684,2.645-7.025
				c1.663-4.41,2.799-8.932,3.251-13.647c0.279-2.915,0.97-5.789,1.373-8.695c0.151-1.091,0.26-2.29-0.03-3.322
				c-1.877-6.68-2.553-13.52-2.895-20.405c-0.161-3.251-0.14-6.51-0.25-9.763c-0.065-1.958,0.197-3.849,0.881-5.695
				c1.138-0.441,1.324,0.602,1.708,1.047c1.031-0.136,1.97-0.259,3.111-0.408c-0.152-0.835-0.334-1.83-0.514-2.818
				c2.879-1.257,5.674-2.479,8.669-3.786c0.258,0.605,0.55,1.201,0.77,1.822c1.571,4.434,2.777,8.966,3.53,13.608
				c1.031,6.359,2.029,12.725,3.003,19.094c0.217,1.42,0.362,2.864,0.383,4.3c0.126,8.506,0.815,17.002,0.358,25.521
				c-0.181,3.367-0.029,6.752-0.029,10.074c0.496-2.103,2.623-22.363,2.54-26.625c-0.175-8.92-0.54-17.835-0.825-26.733
				c2.199-0.482,3.091,0.038,3.427,2.026c0.177,1.044,0.296,2.111,0.3,3.169c0.023,6.511,0.032,13.021-0.008,19.532
				c-0.022,3.691-0.2,7.382-0.21,11.073c-0.008,2.564,0.189,5.126,0.229,7.69c0.145,9.337-1.522,18.422-3.852,27.413
				c-1.71,6.602-3.645,13.134-6.029,19.527c-0.304,0.815-0.615,1.666-0.692,2.521c-0.153,1.721-0.677,3.298-1.464,4.811
				c-4.444,8.557-9.908,16.377-16.746,23.206c-0.172,0.172-0.382,0.306-0.725,0.577c-0.319-0.766-0.609-1.43-0.875-2.104
				c-4.021-10.181-8.036-20.361-12.056-30.542c-0.8-2.024-1.645-4.031-2.385-6.077c-0.142-0.39-0.002-0.982,0.204-1.378
				c1.242-2.387,2.49-4.772,3.846-7.095c0.558-0.955,1.334-1.804,2.111-2.602c0.739-0.759,1.56-1.46,2.432-2.064
				c3.903-2.71,6.536-6.534,9.057-10.421c0.798-1.23,1.264-2.726,1.648-4.162c1.395-5.195,2.589-10.447,4.605-15.456
				c1.12-2.786,2.221-5.581,3.416-8.335c0.788-1.814,1.238-3.678,1.205-5.643c-0.051-3.098-0.155-6.194-0.237-9.29
				C365.06,244.37,364.86,244.333,364.659,244.296z"/>
			<path style="fill-rule:evenodd;clip-rule:evenodd;fill:#2E2E2E;" d="M303.789,139.755c-2.005,0.169-10.027-1.861-11.603-2.873
				c0.389-1.858,1.124-2.482,2.783-1.904c2.522,0.879,4.974,1.967,7.432,3.023C303.074,138.291,303.681,138.764,303.789,139.755z"/>
			<path style="fill-rule:evenodd;clip-rule:evenodd;fill:#2E2E2E;" d="M154.165,240.881c-0.476-0.524-1.011-0.837-1.036-1.186
				c-0.207-2.846-0.08-5.682,0.402-8.535c1.029-0.145,1.742,0.171,1.884,0.982C155.925,235.056,155.844,237.917,154.165,240.881z"/>
			<path style="fill-rule:evenodd;clip-rule:evenodd;fill:#2E2E2E;" d="M123.897,221.146c-1.007-0.282-1.11-0.972-0.991-1.673
				c0.514-3.034,1.602-5.825,3.732-8.538c0,0.571,0.062,0.817-0.01,1.016c-1.033,2.852-1.999,5.719-2.289,8.767
				C124.327,220.851,124.093,220.963,123.897,221.146z"/>
		</g>
		<g>
			<g>
				<path style="fill-rule:evenodd;clip-rule:evenodd;fill:#C00000;" d="M204.917,238.056c-5.38,1.87-10.77,3.72-16.16,5.54
					c-20.15,6.84-40.36,13.5-60.24,21.109c-4.44,1.7-8.9,3.351-13.29,5.181c-1.71,0.71-3.26,1.83-4.85,2.81
					c-0.85,0.53-1.07,1.33-0.66,2.29c0.67,1.57,1.33,3.14,2.03,4.82c-0.43,0.17-1,0.38-1.57,0.62c-4.91,2.05-9.85,4.029-14.71,6.189
					c-2.21,0.99-4.29,2.32-6.38,3.58c-0.54,0.33-1.13,0.93-1.28,1.51c-0.43,1.721,1.1,3.58,2.9,3.49
					c2.05-0.109,4.15-0.22,6.13-0.729c5.81-1.521,11.64-3.021,17.33-4.91c8.43-2.79,16.74-5.95,25.13-8.88
					c12.35-4.311,24.71-8.561,37.07-12.83c0.31-0.11,0.64-0.13,0.96-0.181c-0.47,0.29-0.93,0.62-1.43,0.83
					c-9.52,3.841-19.1,7.561-28.57,11.521c-14.92,6.229-30.25,11.26-45.78,15.7c-4.75,1.359-9.48,2.81-14.18,4.33
					c-1.29,0.409-2.44,1.239-3.67,1.85c-1.03,0.51-1.2,1.32-0.97,2.35c0.2,0.9,0.33,1.811,0.5,2.74c-0.64,0.38-1.18,0.69-1.71,1
					c-3.33,1.97-3.48,2.37-2.2,5.98c0.55,1.55,0.83,1.77,2.41,1.85c2.04,0.12,4-0.29,5.88-1c3.93-1.46,7.89-2.86,11.73-4.52
					c20.67-8.971,41.31-18.03,61.97-27.011c2.17-0.94,4.44-1.69,6.71-2.37c2.4-0.729,4.84-1.35,7.27-2.01
					c0.9-0.24,1.79-0.49,2.68-0.75c5.4-1.58,10.79-3.229,16.19-4.85c0.71-0.21,1.49-0.32,1.8-1.17c0.58-1.65,1.21-3.28,1.74-4.94
					c0.26-0.81,0.29-1.68,0.53-2.5c0.59-2.03,0.94-4.22,1.96-6.02c0.84-1.48,0.96-3.101,1.62-4.59c0.95-2.141,1.38-4.521,2.04-6.79
					c0.9-3.16,1.8-6.32,2.78-9.74C205.837,237.786,205.367,237.906,204.917,238.056z M179.917,266.776
					c-0.17,0.05-0.33,0.08-0.46,0.1c0.19-0.13,0.38-0.289,0.58-0.409c0.07-0.051,0.15-0.091,0.23-0.12c2.65-1.09,5.31-2.15,7.97-3.2
					c0.32-0.13,0.67-0.21,1.2-0.37C188.657,263.676,182.577,266.125,179.917,266.776z"/>
				<path style="fill-rule:evenodd;clip-rule:evenodd;fill:#C00000;" d="M406.287,167.577c-2.65,0.72-5.34,1.34-7.92,2.26
					c-32.33,11.6-64.609,23.359-96.99,34.84c-0.989,0.35-1.989,0.7-2.979,1.05c-11.7,4.14-23.42,8.21-35.14,12.26
					c-10.53,3.65-21.061,7.27-31.59,10.9c-2.81,0.97-5.62,1.93-8.43,2.899c-0.2,0.07-0.39,0.141-0.59,0.21
					c-0.48,0.16-0.95,0.33-1.43,0.49c-1.26,0.44-1.9,1.02-2.23,2.37c-1.31,5.47-2.78,10.9-4.18,16.35
					c-0.08,0.311-0.01,0.67-0.01,1.15c0.29-0.11,0.59-0.22,0.88-0.32c0.92-0.34,1.82-0.68,2.71-1.01c1.69-0.62,3.34-1.229,5.01-1.81
					c0.28-0.101,0.56-0.2,0.84-0.301c14.88-5.26,29.76-10.55,44.61-15.909c11.52-4.15,23.029-8.351,34.52-12.61
					c7.46-2.76,14.92-5.55,22.36-8.37c18.61-7.05,37.21-14.14,55.43-22.16c3.601-1.579,7.13-3.359,10.58-5.27
					c1.66-0.92,3.06-2.34,4.54-3.58c0.34-0.28,0.521-0.74,1.03-1.5c-1.22,0.32-2.01,0.441-2.75,0.73
					c-3.681,1.399-7.33,2.899-11.03,4.27c-26.1,9.7-52.21,19.38-78.31,29.061c-0.4,0.149-0.83,0.22-1.25,0.31
					c0.69-0.36,1.37-0.771,2.09-1.06c21.76-8.601,43.91-16.211,65.37-25.58c7.92-3.45,15.93-6.69,23.83-10.17
					c2.619-1.15,5.159-2.58,7.55-4.16c1.59-1.051,2.87-2.58,4.24-3.931c0.31-0.31,0.43-0.81,0.75-1.43
					C407.117,167.556,406.677,167.466,406.287,167.577z M302.287,214.676l-0.12-0.39c0.49-0.101,0.971-0.19,1.46-0.29
					C303.177,214.226,302.737,214.457,302.287,214.676z"/>
				<path style="fill-rule:evenodd;clip-rule:evenodd;fill:#C00000;" d="M421.427,178.636c-0.311,0.77-0.44,1.28-0.7,1.71
					c-1.33,2.16-2.95,4.1-5.101,5.44c-3.029,1.88-6.05,3.819-9.25,5.35c-14.609,7.02-29.609,13.18-44.64,19.22
					c-18.08,7.26-36.21,14.42-54.39,21.45c-1.221,0.47-2.44,0.95-3.67,1.41c-0.38,0.159-0.77,0.31-1.16,0.449
					c-9.641,3.721-19.29,7.41-28.96,11.061c-18.05,6.81-36.14,13.5-54.28,20.06c-1.73,0.63-3.47,1.25-5.21,1.88
					c-0.07,0.021-0.14,0.051-0.21,0.07c-0.86,0.31-1.74,0.601-2.87,0.99c0.36-1.78,0.66-3.37,0.99-4.92
					c0.08-0.4,0.17-0.79,0.26-1.181c0.51-2.189,1.15-4.359,1.61-6.56c0.18-0.85,0.63-1.25,1.31-1.53c0.08-0.029,0.16-0.06,0.24-0.09
					c0.84-0.3,1.69-0.6,2.53-0.899c1.93-0.69,3.85-1.381,5.78-2.061c11.67-4.16,23.35-8.29,34.97-12.56
					c3.519-1.29,7.05-2.59,10.569-3.88c11.49-4.221,22.98-8.44,34.46-12.67c18.28-6.74,36.551-13.49,54.81-20.28
					c16.95-6.3,33.79-12.88,50.71-19.27c3.14-1.19,6.41-2.07,9.64-3.03C419.557,178.596,420.327,178.696,421.427,178.636z"/>
			</g>
			<g>
				<path style="fill-rule:evenodd;clip-rule:evenodd;fill:#C00000;" d="M359.947,384.686c-1.939-5.021-3.95-10.01-5.76-15.07
					c-1.79-5.01-3.15-10.18-5.08-15.12c-6.08-15.56-11.97-31.189-18.28-46.67c-7.45-18.31-14.37-36.85-21.52-55.279
					c-1.561-4.03-3.311-7.99-4.681-12.08c-0.75-2.25-1.44-4.52-2.109-6.801c-0.86-2.939-1.69-5.9-2.56-8.84
					c-0.149-0.51-0.25-1.029-0.369-1.55c0.539,0.61,0.84,1.29,1.1,1.98c1,2.649,2,5.31,2.99,7.96c3.87,10.29,7.71,20.59,11.72,30.83
					c5.229,13.399,10.68,26.72,16.1,40.05c1.32,3.25,2.9,6.39,5.07,9.19c0.41,0.53,0.91,1,1.37,1.5c0.12-0.08,0.24-0.17,0.35-0.26
					c-0.96-2.5-1.91-5-2.88-7.5c-9.63-24.97-19.16-49.99-28.06-75.22c-1.23-3.47-2.45-6.95-3.641-10.43
					c-11.48,4.23-22.97,8.449-34.46,12.67c1.36,3.59,2.761,7.17,4.311,10.68c1.77,4.02,3.729,7.96,6.06,11.729
					c0.63,1.011,1.32,2,1.811,3.07c2.699,6.061,5.41,12.11,8,18.22c3.62,8.521,6.62,17.301,10.89,25.54
					c1.09,2.11,2.17,4.24,3.12,6.41c4.2,9.641,8.35,19.3,12.52,28.95c3.99,9.25,8.16,18.43,11.341,28
					c0.51,1.54,1.06,3.08,1.699,4.58c2.17,5.13,4.48,10.189,8.32,14.36c0.97,1.05,1.82,2.229,3.66,2.34
					c-0.08-0.92-0.07-1.721-0.24-2.49c-0.25-1.16-0.57-2.311-0.97-3.43c-1.771-4.95-3.57-9.881-5.37-14.83
					c-0.22-0.63-0.43-1.271-0.65-1.9c0.94,0.78,1.58,1.79,2.471,2.49c0.89,0.7,1.37,1.54,1.819,2.52
					c2.4,5.301,4.761,10.63,7.35,15.83c1.069,2.16,2.54,4.17,4.1,6.03c2.06,2.44,4.36,4.66,6.58,6.95c0.3,0.31,0.72,0.49,1.09,0.73
					c0.08-0.64-0.02-1.069-0.28-1.35c-3.029-3.26-4.819-7.3-7.06-11.061c-0.19-0.31-0.33-0.659-0.44-1.01
					c-0.569-1.77-0.989-3.6-1.69-5.33c-3.17-7.83-6.45-15.609-9.62-23.45c-5.61-13.859-11.05-27.8-15.36-42.14
					c-0.34-1.12-0.649-2.24-0.98-3.37c0.58,0.691,0.88,1.471,1.17,2.25c3.25,9,6.479,18.021,9.77,27.01
					c2.02,5.521,4.08,11.03,6.25,16.5c0.78,1.961,1.94,3.771,2.971,5.62c0.17,0.311,0.59,0.48,0.89,0.721
					c0.12-0.07,0.23-0.13,0.34-0.19c-0.45-1.92-0.899-3.83-1.399-5.96c0.25,0.33,0.38,0.46,0.46,0.61
					c4.89,9.449,9.779,18.89,14.67,28.34c0.12,0.22,0.33,0.45,0.33,0.67c-0.07,1.58,1.149,2.29,2.12,3.12
					c1.09,0.939,1.649,0.819,2.93-0.441C361.477,388.506,360.697,386.606,359.947,384.686z M319.527,305.936
					c-0.11-0.44-0.22-0.88-0.33-1.33c-0.02-0.05-0.05-0.1-0.08-0.15c0-0.02-0.01-0.05-0.01-0.069c-0.15-0.16-0.33-0.3-0.41-0.48
					c-2.18-5.24-4.37-10.5-6.53-15.75c-0.23-0.56-0.359-1.16-0.34-1.819c0.12,0.189,0.29,0.35,0.37,0.56
					c2.26,5.479,4.51,10.97,6.75,16.47c0.12,0.311,0.12,0.681,0.16,1.021c0.02,0.01,0.03,0.02,0.05,0.04
					c0.01,0.06,0.03,0.12,0.04,0.18c0.23,0.4,0.45,0.8,0.68,1.2C319.757,305.856,319.647,305.896,319.527,305.936z M217.927,252.546
					c-1.05,3.409-2.1,6.819-3.04,10.26c-0.36,1.309-0.7,2.609-1.03,3.93c-1.31,5.17-2.45,10.39-3.77,15.56
					c-0.83,3.23-1.35,6.489-1.52,9.81c-0.03,0.45,0.07,0.91,0.11,1.37c0.16,0.02,0.32,0.04,0.49,0.07
					c0.79-1.82,1.68-3.601,2.34-5.46c1.86-5.19,3.72-10.37,5.4-15.61c0.82-2.55,1.6-5.12,2.37-7.69c1.44-4.779,2.85-9.569,4.43-14.3
					C221.777,251.166,219.857,251.856,217.927,252.546z M298.397,205.726c-3.87-11.66-7.58-23.38-11.07-35.18
					c-1.93-6.54-3.84-13.11-6.8-19.28c-1.06-2.22-1.56-4.45-1.56-6.86c0-5.47-0.58-10.859-2.21-16.119
					c-0.37-1.221-0.801-2.32-1.641-3.131c-0.93,0-2.109,0.33-2.46-0.069c-0.96-1.101-2.7-1.67-2.67-3.561
					c0.03-1.189-0.14-2.37-0.16-3.55c-0.029-1.74,0.15-3.49-0.04-5.21c-0.22-1.92-0.54-3.87-1.189-5.67
					c-0.57-1.62-1.471-3.21-2.57-4.52c-0.47-0.54-1.84-0.32-2.93-0.461c0.2-0.96,0.41-1.92,0.62-2.909
					c-0.86-0.721-1.65-1.44-2.5-2.091c-0.73-0.569-1.88-0.909-2.181-1.619c-0.449-1.101-1.31-1.07-2.08-1.42
					c-0.13-0.051-0.13-0.33-0.22-0.48c-0.13-0.17-0.34-0.47-0.43-0.44c-1.02,0.32-1.57-0.54-2.27-0.92
					c-0.939-0.51-1.76-1.26-2.66-1.87c-0.71-0.479-1.999-0.479-2.58,0.07c-0.93,0.891-1.96,1.75-2.65,2.811
					c-1.22,1.88-2.35,3.85-3.29,5.89c-3.96,8.51-7.73,17.11-11.77,25.59c-2.88,6.05-5.54,12.19-7.83,18.481
					c-2.8,7.71-5.54,15.439-8.46,23.1c-7.81,20.47-15.16,41.09-21.4,62.1c-1.51,5.08-3,10.16-4.64,15.19
					c-1.47,4.54-3.08,9.05-4.92,13.47c-1.3,3.12-2.57,6.25-3.8,9.4c0.07-0.051,0.15-0.091,0.23-0.12c2.65-1.09,5.31-2.15,7.97-3.2
					c0.32-0.13,0.67-0.21,1.2-0.37c-0.78,0.9-6.86,3.35-9.52,4c-1.59,4.03-3.13,8.07-4.63,12.13c-3.07,8.271-5.98,16.601-8.83,24.96
					c-5,14.63-10.11,29.21-15.35,43.75c-3.39,9.42-6.63,18.9-10.59,28.11c-2.26,5.229-2.95,10.83-2.7,16.55
					c0.1,2.47,0.39,4.84,1.6,7.05c0.51,0.931,0.75,2.011,1.26,2.94c0.86,1.58,1.66,3.25,2.83,4.59c0.73,0.85,2.08,1.17,3.15,1.73
					c1.12-0.771,2.08,0.079,2.87,0.52c0.93,0.52,1.67,0.88,2.65,0.3c0.13-0.08,0.46-0.069,0.53,0.021
					c0.65,0.859,1.17,0.13,1.72-0.12c0.44,0.229,0.87,0.47,1.28,0.68c0.88-0.47,1.9-0.74,2.5-1.399c0.64-0.7,0.89-1.771,1.31-2.681
					c0.08-0.17,0.19-0.33,0.26-0.5c1.18-2.96,2.38-5.899,2.67-9.13c0.23-2.55,0.57-5.11,1.06-7.62c1.76-8.939,5.07-17.399,7.97-26
					c0.04-0.09,0.25-0.13,0.6-0.31c-0.17,0.63-0.25,1.04-0.39,1.44c-2.4,6.891-3.71,14.021-4.7,21.221
					c-0.11,0.859-0.12,1.75-0.09,2.619c0.04,1.101,0.16,2.19,0.25,3.33c0.64-1.529,1.36-3.02,1.89-4.58
					c1.6-4.68,3.14-9.38,4.65-14.079c2.33-7.2,4.81-14.341,7.45-21.44c8.58-22.98,16.71-46.12,24.5-69.38
					c2.09-6.23,4.21-12.45,6.34-18.67c1.06-3.09,2.12-6.181,3.18-9.271c0.17-0.5,0.35-1,0.52-1.5c2.16-6.29,4.33-12.569,6.49-18.859
					c0.14-0.4,0.31-0.79,0.48-1.181c0.11-0.26,0.22-0.51,0.33-0.77c0.12,0.03,0.24,0.07,0.35,0.1c-0.03,0.15-0.06,0.311-0.09,0.46
					c-0.71,3.46-1.25,6.95-2.2,10.34c-0.83,2.98-1.74,5.94-2.65,8.9c1.69-0.62,3.34-1.229,5.01-1.81c0.28-0.101,0.56-0.2,0.84-0.301
					c0.27-0.8,0.55-1.6,0.84-2.4c2.12-5.9,4.31-11.78,6.59-17.63c2.28-5.87,4.66-11.71,7.13-17.5c2.21-5.17,4.3-10.4,5.81-15.85
					c1.45-5.24,3.23-10.391,4.87-15.58c0.07-0.21,0.19-0.4,0.41-0.87c0.31,0.83,0.55,1.399,0.73,1.979
					c3.931,12.4,8.181,24.7,12.641,36.92c1.699,4.65,3.42,9.28,5.17,13.91c0.14,0.37,0.279,0.74,0.42,1.11
					c11.52-4.15,23.029-8.351,34.52-12.61C301.677,215.516,300.017,210.626,298.397,205.726z"/>
			</g>
		</g>
	</g>
</g>
</svg>
